<svg width="48" height="48" viewBox="0 0 48 48" fill="none" xmlns="http://www.w3.org/2000/svg">
<path d="M33.812 14.3665C33.8215 14.3665 33.8343 14.3665 33.847 14.3665C34.1801 14.3665 34.4892 14.4701 34.7426 14.6486L34.7379 14.6454C34.9227 14.8064 35.047 15.0327 35.0773 15.2877V15.2924C35.1092 15.4869 35.1267 15.71 35.1267 15.9378C35.1267 16.0414 35.1235 16.1434 35.1155 16.2454V16.2311C34.757 20.0064 33.2016 29.1618 32.4112 33.3881C32.0765 35.1777 31.4183 35.7769 30.7809 35.8343C29.396 35.9633 28.3442 34.9195 27.0024 34.0398C24.902 32.6614 23.7147 31.804 21.6765 30.4606C19.3195 28.91 20.8478 28.0542 22.1896 26.6614C22.5418 26.2948 28.647 20.741 28.7665 20.2375C28.7729 20.2072 28.7761 20.1737 28.7761 20.1386C28.7761 20.0143 28.7299 19.9012 28.655 19.8151C28.5721 19.761 28.4685 19.7307 28.3602 19.7307C28.2884 19.7307 28.2199 19.745 28.1562 19.7689L28.1594 19.7673C27.949 19.8151 24.5939 22.0324 18.094 26.4191C17.3849 26.9785 16.4892 27.3323 15.5139 27.3737H15.5044C14.1227 27.2064 12.8685 26.8988 11.6781 26.4606L11.796 26.4988C10.3012 26.0112 9.11394 25.7546 9.21594 24.9291C9.27012 24.4999 9.86187 24.0606 10.9912 23.6112C17.9479 20.5801 22.587 18.5822 24.9084 17.6175C27.4693 16.2582 30.4382 15.1394 33.5602 14.4143L33.8104 14.3649L33.812 14.3665ZM23.9442 0C10.7139 0.0318725 0 10.7649 0 24C0 37.2542 10.7442 48 24 48C37.2558 48 48 37.2558 48 24C48 10.7649 37.2861 0.0318725 24.059 0H24.0558C24.0186 0 23.9814 0 23.9442 0Z" fill="white"/>
</svg>
