<svg width="48" height="48" viewBox="0 0 48 48" fill="none" xmlns="http://www.w3.org/2000/svg">
<path d="M24 0C10.7438 0 0 10.7438 0 24C0 37.2562 10.7438 48 24 48C37.2562 48 48 37.2562 48 24C48 10.7438 37.2562 0 24 0ZM33.5813 20.2688C33.5906 20.475 33.5906 20.6906 33.5906 20.9063C33.5906 27.4219 28.6313 34.9406 19.5563 34.9406C16.7719 34.9406 14.175 34.125 12 32.7281C12.3844 32.775 12.7781 32.7937 13.1813 32.7937C15.4875 32.7937 17.6156 32.0062 19.3031 30.6844C17.1469 30.6469 15.3188 29.2219 14.7 27.2625C15 27.3187 15.3094 27.3469 15.6281 27.3469C16.0781 27.3469 16.5188 27.2906 16.9313 27.1687C14.6719 26.7187 12.975 24.7219 12.975 22.3313V22.275C13.6406 22.6406 14.4 22.8656 15.2062 22.8938C13.8844 22.0125 13.0125 20.4937 13.0125 18.7875C13.0125 17.8875 13.2562 17.0344 13.6781 16.3031C16.1156 19.2937 19.7438 21.2531 23.8406 21.4594C23.7563 21.1031 23.7094 20.7281 23.7094 20.3344C23.7094 17.6156 25.9219 15.4031 28.6406 15.4031C30.0563 15.4031 31.3406 16.0031 32.2406 16.9594C33.3656 16.7344 34.4156 16.3313 35.3719 15.7594C35.0062 16.9125 34.2188 17.8781 33.2063 18.4875C34.2 18.3656 35.1562 18.1031 36.0375 17.7094C35.3812 18.7031 34.5469 19.5656 33.5813 20.2688Z" fill="white"/>
</svg>
